<?xml version="1.0" encoding="utf-8"?>
<!-- Generator: Adobe Illustrator 27.3.1, SVG Export Plug-In . SVG Version: 6.00 Build 0)  -->
<svg version="1.1" id="Layer_1" xmlns="http://www.w3.org/2000/svg" xmlns:xlink="http://www.w3.org/1999/xlink" x="0px" y="0px"
	 viewBox="0 0 595.28 262.86" style="enable-background:new 0 0 595.28 262.86;" xml:space="preserve">
<style type="text/css">
	.st0{fill:none;stroke:#000000;stroke-width:5;stroke-miterlimit:10;}
	.st1{fill:none;stroke:#000000;stroke-width:7;stroke-linecap:round;stroke-miterlimit:10;}
	.st2{opacity:0.957;enable-background:new    ;}
	.st3{opacity:0.948;fill-rule:evenodd;clip-rule:evenodd;enable-background:new    ;}
	.st4{opacity:0.945;fill-rule:evenodd;clip-rule:evenodd;enable-background:new    ;}
	.st5{opacity:0.872;fill-rule:evenodd;clip-rule:evenodd;enable-background:new    ;}
	.st6{opacity:0.884;fill-rule:evenodd;clip-rule:evenodd;enable-background:new    ;}
	.st7{opacity:0.957;fill-rule:evenodd;clip-rule:evenodd;enable-background:new    ;}
	.st8{opacity:0.941;fill-rule:evenodd;clip-rule:evenodd;enable-background:new    ;}
	.st9{opacity:0.936;fill-rule:evenodd;clip-rule:evenodd;enable-background:new    ;}
	.st10{opacity:0.928;fill-rule:evenodd;clip-rule:evenodd;enable-background:new    ;}
	.st11{opacity:0.948;fill-rule:evenodd;clip-rule:evenodd;fill:#4D4D4E;enable-background:new    ;}
	.st12{opacity:0.945;fill-rule:evenodd;clip-rule:evenodd;fill:#4D4D4E;enable-background:new    ;}
	.st13{opacity:0.872;fill-rule:evenodd;clip-rule:evenodd;fill:#4D4D4E;enable-background:new    ;}
	.st14{opacity:0.884;fill-rule:evenodd;clip-rule:evenodd;fill:#4D4D4E;enable-background:new    ;}
	.st15{opacity:0.957;fill-rule:evenodd;clip-rule:evenodd;fill:#4D4D4E;enable-background:new    ;}
	.st16{opacity:0.941;fill-rule:evenodd;clip-rule:evenodd;fill:#4D4D4E;enable-background:new    ;}
	.st17{opacity:0.936;fill-rule:evenodd;clip-rule:evenodd;fill:#4D4D4E;enable-background:new    ;}
	.st18{opacity:0.928;fill-rule:evenodd;clip-rule:evenodd;fill:#4D4D4E;enable-background:new    ;}
	
		.st19{opacity:0.945;fill-rule:evenodd;clip-rule:evenodd;fill:#C4972D;stroke:#C4972D;stroke-width:0.75;stroke-miterlimit:10;enable-background:new    ;}
	.st20{fill:none;stroke:#C4972D;stroke-width:12;stroke-linecap:round;stroke-miterlimit:10;}
	.st21{fill:#C4972D;stroke:#C4972D;stroke-width:4;stroke-miterlimit:10;}
	.st22{fill:#C4972D;stroke:#4D4D4E;stroke-width:12;stroke-linecap:round;stroke-miterlimit:10;}
	.st23{fill:#4D4D4E;}
	.st24{opacity:0.945;enable-background:new    ;}
	.st25{fill:#C4972D;}
	.st26{opacity:0.945;fill-rule:evenodd;clip-rule:evenodd;fill:#C4972D;enable-background:new    ;}
</style>
<path d="M-38.13,364.14c-0.59-0.21-1.19-0.39-1.76-0.65c-2.52-1.15-3.97-3.14-4.56-5.81c-0.54-2.46-1.09-4.92-1.69-7.37
	c-0.08-0.34-0.4-0.71-0.71-0.9c-2.53-1.5-5.08-2.98-7.65-4.42c-0.37-0.2-0.93-0.27-1.34-0.15c-2.35,0.69-4.68,1.47-7.03,2.2
	c-4.06,1.25-7.59-0.13-9.71-3.78c-2.34-4.04-4.68-8.07-7.01-12.11c-2.16-3.75-1.59-7.47,1.56-10.38c1.76-1.62,3.54-3.21,5.26-4.87
	c0.35-0.33,0.61-0.93,0.62-1.41c0.06-2.87,0.05-5.75,0-8.62c-0.01-0.45-0.23-1.02-0.56-1.33c-1.77-1.71-3.61-3.34-5.42-5.01
	c-3.01-2.78-3.6-6.57-1.56-10.13c2.39-4.17,4.8-8.33,7.23-12.47c1.99-3.4,5.53-4.79,9.3-3.66c2.45,0.74,4.88,1.55,7.34,2.26
	c0.42,0.12,1.02,0,1.41-0.22c2.51-1.4,5-2.84,7.46-4.31c0.36-0.22,0.72-0.65,0.82-1.04c0.65-2.61,1.19-5.26,1.85-7.87
	c0.91-3.57,3.87-5.83,7.55-5.83c4.86-0.01,9.71,0,14.57,0c4.25,0,7.15,2.36,8.07,6.54c0.52,2.36,1.09,4.71,1.59,7.07
	c0.13,0.61,0.42,0.91,0.97,1.21c2.46,1.35,4.89,2.75,7.28,4.22c0.57,0.35,1.02,0.46,1.64,0.26c2.23-0.74,4.47-1.44,6.72-2.14
	c4.3-1.36,7.77-0.01,10.03,3.89c2.27,3.91,4.54,7.83,6.81,11.75c2.29,3.96,1.74,7.64-1.6,10.72c-1.73,1.6-3.49,3.16-5.19,4.8
	c-0.32,0.31-0.54,0.88-0.55,1.34c-0.05,2.87-0.05,5.75,0,8.62c0.01,0.46,0.23,1.03,0.55,1.34c1.77,1.7,3.62,3.34,5.42,5.01
	c3.01,2.79,3.62,6.57,1.58,10.13c-2.39,4.17-4.8,8.33-7.23,12.48c-2.02,3.45-5.56,4.81-9.4,3.64c-2.38-0.72-4.76-1.47-7.13-2.24
	c-0.62-0.2-1.06-0.12-1.64,0.23c-2.42,1.48-4.91,2.85-7.35,4.3c-0.36,0.22-0.74,0.64-0.83,1.03c-0.6,2.38-1.13,4.77-1.65,7.16
	c-0.73,3.36-2.66,5.57-6.07,6.4c-0.09,0.02-0.17,0.11-0.26,0.17C-26.3,364.14-32.22,364.14-38.13,364.14z M15.66,293.67
	c-0.2-0.45-0.32-0.77-0.49-1.07c-2.31-4.01-4.65-8.01-6.94-12.03c-0.5-0.87-1.07-1.04-1.99-0.73c-2.96,0.98-5.96,1.85-8.92,2.84
	c-1.48,0.5-2.72,0.27-3.92-0.71c-2.88-2.34-6.05-4.2-9.54-5.51c-1.33-0.5-2.11-1.42-2.41-2.81c-0.66-3.05-1.36-6.08-2.05-9.12
	c-0.31-1.36-0.53-1.55-1.91-1.56c-4.47,0-8.94,0-13.41,0c-1.47,0-1.66,0.15-1.98,1.59c-0.65,2.94-1.32,5.88-1.95,8.82
	c-0.32,1.48-1.06,2.55-2.53,3.1c-3.48,1.31-6.65,3.16-9.53,5.51c-1.16,0.95-2.39,1.18-3.83,0.71c-2.96-0.98-5.96-1.87-8.92-2.86
	c-1.03-0.34-1.61-0.1-2.14,0.84c-2.21,3.91-4.49,7.78-6.74,11.67c-0.77,1.32-0.73,1.51,0.44,2.58c2.23,2.04,4.45,4.09,6.69,6.12
	c1.08,0.97,1.51,2.11,1.29,3.57c-0.55,3.7-0.56,7.42,0,11.12c0.23,1.51-0.24,2.66-1.35,3.65c-2.32,2.1-4.61,4.23-6.93,6.33
	c-0.69,0.62-0.79,1.22-0.32,2.03c2.36,4.02,4.71,8.06,7.02,12.11c0.47,0.83,1.02,1,1.91,0.71c2.93-0.96,5.91-1.8,8.82-2.81
	c1.65-0.57,2.99-0.27,4.3,0.8c2.74,2.24,5.76,4.01,9.08,5.24c1.58,0.59,2.43,1.65,2.76,3.27c0.62,2.98,1.34,5.94,1.97,8.93
	c0.22,1.05,0.74,1.44,1.82,1.43c4.5-0.04,9.01-0.02,13.51-0.02c1.4,0,1.61-0.17,1.92-1.54c0.69-3.07,1.4-6.14,2.08-9.22
	c0.3-1.36,1.09-2.23,2.37-2.72c3.48-1.31,6.66-3.16,9.54-5.5c1.2-0.97,2.44-1.22,3.92-0.72c2.99,1,6.02,1.88,9.02,2.87
	c0.9,0.3,1.43,0.09,1.89-0.73c2.29-4.02,4.61-8.03,6.96-12.02c0.53-0.9,0.39-1.52-0.36-2.19c-2.33-2.09-4.61-4.23-6.93-6.33
	c-1.02-0.92-1.46-2-1.27-3.38c0.5-3.63,0.63-7.28,0.04-10.91c-0.3-1.81,0.28-3.16,1.66-4.36c2.24-1.93,4.38-3.96,6.54-5.97
	C15.16,294.39,15.39,294.01,15.66,293.67z"/>
<path class="st0" d="M-302.5-343.96c0.75-3.34,1.64-7.4,2.58-11.45c3.6-15.54,7.2-31.07,10.81-46.61c0.79-3.42,3.12-5.49,6.31-5.68
	c3.06-0.18,5.76,1.56,6.66,4.6c0.36,1.21,0.43,2.65,0.15,3.87c-4.34,19-8.74,37.98-13.15,56.96c-0.95,4.07-3.86,6.2-7.67,5.71
	C-300.11-336.99-302.51-339.8-302.5-343.96z"/>
<path class="st0" d="M-330.35-372.1c3.65,3.28,7.16,6.44,10.66,9.58c1.91,1.72,3.86,3.4,5.74,5.16c3.13,2.93,3.43,6.93,0.78,9.82
	c-2.55,2.78-6.63,2.95-9.72,0.21c-7.34-6.51-14.64-13.07-21.89-19.67c-3.3-3-3.29-7.23,0.01-10.23c7.25-6.6,14.56-13.15,21.88-19.68
	c3.04-2.71,7.18-2.54,9.72,0.24c2.59,2.84,2.4,6.86-0.65,9.67c-4.76,4.38-9.62,8.66-14.43,12.98
	C-328.9-373.43-329.55-372.83-330.35-372.1z"/>
<path class="st0" d="M-247.87-372.09c-4.99-4.49-9.79-8.8-14.6-13.12c-0.67-0.6-1.36-1.19-2.02-1.81c-2.9-2.77-3.19-6.68-0.71-9.52
	c2.48-2.84,6.67-3.11,9.71-0.45c4.51,3.94,8.92,7.98,13.37,11.97c2.74,2.46,5.51,4.9,8.23,7.4c3.77,3.46,3.83,7.57,0.08,10.97
	c-7.11,6.45-14.26,12.86-21.43,19.24c-3.17,2.82-7.3,2.7-9.88-0.16c-2.62-2.9-2.3-6.93,0.87-9.81
	C-258.9-362.24-253.49-367.05-247.87-372.09z"/>
<g>
	<path class="st1" d="M-288.04-293.95c0.35,0,0.69,0.03,1.04,0.03c43.18,0,78.18-35,78.18-78.18s-35-78.18-78.18-78.18
		c-0.35,0-0.69,0.02-1.04,0.03"/>
	<line class="st1" x1="-288.58" y1="-450.28" x2="-288.58" y2="-436.06"/>
	<line class="st1" x1="-288.58" y1="-310.4" x2="-288.58" y2="-294.01"/>
</g>
<g class="st2">
	<path class="st3" d="M-176.46-421.98c56.41-8.87,80.27,14.84,71.58,71.13c-4.73,20.17-17.49,31.28-38.27,33.31
		c-1.53-0.36-3.03-0.81-4.5-1.35c-11.28-11.28-22.53-22.53-33.76-33.76c-2.22-7.28,0.33-11.48,7.65-12.61
		c2.28,0.24,4.38,0.99,6.3,2.25c9,9,18.01,18.01,27.01,27.01c9.65-0.93,15.8-6.18,18.46-15.76c0.6-12.01,0.6-24.01,0-36.02
		c-2.11-7.51-6.76-12.76-13.96-15.76c-9.83-1.29-19.74-1.74-29.71-1.35c-0.15,4.81,0,9.61,0.45,14.41
		c9.88,9.28,19.48,18.88,28.81,28.81c3.03,7.45,0.63,11.95-7.2,13.51c-2.54-0.44-4.79-1.49-6.75-3.15
		c-10.08-10.98-20.43-21.63-31.06-31.96c-0.6-11.4-0.6-22.81,0-34.21C-179.85-419.19-178.2-420.69-176.46-421.98z"/>
</g>
<g>
	<path class="st4" d="M66.65-421.98c14.11-0.15,28.22,0,42.32,0.45c16.33,3.13,26.09,12.88,29.26,29.26
		c1.69,14.76-3.56,26.31-15.76,34.66c-4.26,2.22-8.76,3.72-13.51,4.5c-10.5,0.45-21.01,0.6-31.51,0.45c0.15,9.91,0,19.81-0.45,29.71
		c-4.7,6.57-9.81,6.87-15.31,0.9c-1.79-14.41-1.79-28.82,0-43.22c1.39-1.69,3.04-3.04,4.95-4.05c14.77-0.04,29.47-0.64,44.12-1.8
		c10.93-6.38,13.48-15.23,7.65-26.56c-2.04-2.64-4.59-4.59-7.65-5.85c-6.83-1.41-13.73-1.71-20.71-0.9
		c5.85,5.25,11.41,10.8,16.66,16.66c3.03,7.45,0.63,11.95-7.2,13.51c-2.09-0.37-4.04-1.12-5.85-2.25
		c-10.98-10.68-21.64-21.64-31.96-32.86C59.91-415.15,61.56-419.36,66.65-421.98z"/>
</g>
<g>
	<path class="st5" d="M151.28-421.98c8.1-0.15,11.55,3.75,10.35,11.71c-3.11,5.14-7.46,6.49-13.06,4.05
		c-3.27-2.75-4.32-6.2-3.15-10.35C146.72-419.23,148.67-421.03,151.28-421.98z"/>
</g>
<g>
	<path class="st6" d="M185.5-416.58c0,2.1,0,4.2,0,6.3c-3.3,5.05-7.8,6.4-13.51,4.05c-5.72-7.61-4.07-12.86,4.95-15.76
		C180.88-421.78,183.73-419.97,185.5-416.58z"/>
</g>
<g>
	<path class="st7" d="M-63.01-394.97c27.32,1.06,40.98,15.16,40.97,42.32c-0.75,1.95-2.1,3.3-4.05,4.05
		c-17.71,0.3-35.41,0.6-53.12,0.9c5.75,10.53,14.45,14.43,26.11,11.71c4.22-2.43,8.42-4.83,12.61-7.2c5.95-0.78,9.55,1.77,10.8,7.65
		c-2.78,7.13-7.88,12.08-15.31,14.86c-17.87,6-33.02,1.95-45.47-12.16c-10.2-15.61-10.2-31.21,0-46.82
		C-83.26-388.44-74.11-393.54-63.01-394.97z M-63.01-377.86c10.13-0.35,17.63,3.85,22.51,12.61c-12.9,1.05-25.8,1.2-38.72,0.45
		C-75.77-371.72-70.37-376.07-63.01-377.86z"/>
</g>
<g>
	<path class="st8" d="M-15.29-394.97c3.32,0.08,6.17,1.28,8.55,3.6c7.42,15.15,15.08,30.15,22.96,45.02
		c7.9-14.89,15.55-29.9,22.96-45.02c5.51-5.08,10.31-4.48,14.41,1.8c0.6,2.4,0.6,4.8,0,7.2c-10.38,21.51-21.33,42.67-32.86,63.48
		c-4.76,1.85-8.81,0.8-12.16-3.15c-9.9-19.81-19.81-39.62-29.71-59.43C-23.61-387.93-21.66-392.43-15.29-394.97z"/>
</g>
<g>
	<path class="st9" d="M152.18-394.97c4.64-0.01,7.79,2.09,9.45,6.3c0.6,21.61,0.6,43.22,0,64.83c-3.23,6.08-7.88,7.43-13.96,4.05
		c-0.86-1.28-1.61-2.63-2.25-4.05c-0.6-21.61-0.6-43.22,0-64.83C146.52-392.12,148.77-394.22,152.18-394.97z"/>
</g>
<g>
	<path class="st10" d="M185.5-388.67c0,21.61,0,43.22,0,64.83c-4.47,7.24-9.73,7.84-15.76,1.8c-1.03-11.32-1.48-22.73-1.35-34.21
		c-0.13-11.49,0.32-22.89,1.35-34.21C175.77-396.51,181.02-395.91,185.5-388.67z"/>
</g>
<g class="st2">
	<path class="st11" d="M560.2-209.53c56.41-8.87,80.27,14.84,71.58,71.13c-4.73,20.17-17.49,31.28-38.27,33.31
		c-1.53-0.36-3.03-0.81-4.5-1.35c-11.28-11.28-22.53-22.53-33.76-33.76c-2.22-7.28,0.33-11.48,7.65-12.61
		c2.28,0.24,4.38,0.99,6.3,2.25c9,9,18.01,18.01,27.01,27.01c9.65-0.93,15.8-6.18,18.46-15.76c0.6-12.01,0.6-24.01,0-36.02
		c-2.11-7.51-6.76-12.76-13.96-15.76c-9.83-1.29-19.74-1.74-29.71-1.35c-0.15,4.81,0,9.61,0.45,14.41
		c9.88,9.28,19.48,18.88,28.81,28.81c3.03,7.45,0.63,11.95-7.2,13.51c-2.54-0.44-4.79-1.49-6.75-3.15
		c-10.08-10.98-20.43-21.63-31.06-31.96c-0.6-11.4-0.6-22.81,0-34.21C556.81-206.74,558.46-208.24,560.2-209.53z"/>
</g>
<g>
	<path class="st12" d="M803.31-209.53c14.11-0.15,28.22,0,42.32,0.45c16.33,3.13,26.09,12.88,29.26,29.26
		c1.69,14.76-3.56,26.31-15.76,34.66c-4.26,2.22-8.76,3.72-13.51,4.5c-10.5,0.45-21.01,0.6-31.51,0.45c0.15,9.91,0,19.81-0.45,29.71
		c-4.7,6.57-9.81,6.87-15.31,0.9c-1.79-14.41-1.79-28.82,0-43.22c1.39-1.69,3.04-3.04,4.95-4.05c14.77-0.04,29.47-0.64,44.12-1.8
		c10.93-6.38,13.48-15.23,7.65-26.56c-2.04-2.64-4.59-4.59-7.65-5.85c-6.83-1.41-13.73-1.71-20.71-0.9
		c5.85,5.25,11.41,10.8,16.66,16.66c3.03,7.45,0.63,11.95-7.2,13.51c-2.09-0.37-4.04-1.12-5.85-2.25
		c-10.98-10.68-21.64-21.64-31.96-32.86C796.57-202.7,798.22-206.9,803.31-209.53z"/>
</g>
<g>
	<path class="st13" d="M887.94-209.53c8.1-0.15,11.55,3.75,10.35,11.71c-3.11,5.14-7.46,6.49-13.06,4.05
		c-3.27-2.75-4.32-6.2-3.15-10.35C883.38-206.77,885.33-208.57,887.94-209.53z"/>
</g>
<g>
	<path class="st14" d="M922.16-204.13c0,2.1,0,4.2,0,6.3c-3.3,5.05-7.8,6.4-13.51,4.05c-5.72-7.61-4.07-12.86,4.95-15.76
		C917.54-209.32,920.4-207.52,922.16-204.13z"/>
</g>
<g>
	<path class="st15" d="M674.3-182.52c27.32,1.06,40.98,15.16,40.97,42.32c-0.75,1.95-2.1,3.3-4.05,4.05
		c-17.71,0.3-35.41,0.6-53.12,0.9c5.75,10.53,14.45,14.43,26.11,11.71c4.22-2.43,8.42-4.83,12.61-7.2c5.95-0.78,9.55,1.77,10.8,7.65
		c-2.78,7.13-7.88,12.08-15.31,14.86c-17.87,6-33.02,1.95-45.47-12.16c-10.2-15.61-10.2-31.21,0-46.82
		C654.05-175.99,663.2-181.09,674.3-182.52z M674.3-165.41c10.13-0.35,17.63,3.85,22.51,12.61c-12.9,1.05-25.8,1.2-38.72,0.45
		C661.54-159.27,666.95-163.62,674.3-165.41z"/>
</g>
<g>
	<path class="st16" d="M722.02-182.52c3.32,0.08,6.17,1.28,8.55,3.6c7.42,15.15,15.08,30.15,22.96,45.02
		c7.9-14.89,15.55-29.9,22.96-45.02c5.51-5.08,10.31-4.48,14.41,1.8c0.6,2.4,0.6,4.8,0,7.2c-10.38,21.51-21.33,42.67-32.86,63.48
		c-4.76,1.85-8.81,0.8-12.16-3.15c-9.9-19.81-19.81-39.62-29.71-59.43C713.7-175.47,715.65-179.98,722.02-182.52z"/>
</g>
<g>
	<path class="st17" d="M888.84-182.52c4.64-0.01,7.79,2.09,9.45,6.3c0.6,21.61,0.6,43.22,0,64.83c-3.23,6.08-7.88,7.43-13.96,4.05
		c-0.86-1.28-1.61-2.63-2.25-4.05c-0.6-21.61-0.6-43.22,0-64.83C883.18-179.66,885.43-181.77,888.84-182.52z"/>
</g>
<g>
	<path class="st18" d="M922.16-176.21c0,21.61,0,43.22,0,64.83c-4.47,7.24-9.73,7.84-15.76,1.8c-1.03-11.32-1.48-22.73-1.35-34.21
		c-0.13-11.49,0.32-22.89,1.35-34.21C912.43-184.06,917.68-183.45,922.16-176.21z"/>
</g>
<g class="st2">
	<path class="st11" d="M176.55,85.25c56.41-8.87,80.27,14.84,71.58,71.13c-4.73,20.17-17.49,31.28-38.27,33.31
		c-1.53-0.36-3.03-0.81-4.5-1.35c-11.28-11.28-22.53-22.53-33.76-33.76c-2.22-7.28,0.33-11.48,7.65-12.61
		c2.28,0.24,4.38,0.99,6.3,2.25c9,9,18.01,18.01,27.01,27.01c9.65-0.93,15.8-6.18,18.46-15.76c0.6-12.01,0.6-24.01,0-36.02
		c-2.11-7.51-6.76-12.76-13.96-15.76c-9.83-1.29-19.74-1.74-29.71-1.35c-0.15,4.81,0,9.61,0.45,14.41
		c9.88,9.28,19.48,18.88,28.81,28.81c3.03,7.45,0.63,11.95-7.2,13.51c-2.54-0.44-4.79-1.49-6.75-3.15
		c-10.08-10.98-20.43-21.63-31.06-31.96c-0.6-11.4-0.6-22.81,0-34.21C173.16,88.04,174.81,86.54,176.55,85.25z"/>
</g>
<g>
	<path class="st12" d="M419.66,85.25c14.11-0.15,28.22,0,42.32,0.45c16.33,3.13,26.09,12.88,29.26,29.26
		c1.69,14.76-3.56,26.31-15.76,34.66c-4.26,2.22-8.76,3.72-13.51,4.5c-10.5,0.45-21.01,0.6-31.51,0.45c0.15,9.91,0,19.81-0.45,29.71
		c-4.7,6.57-9.81,6.87-15.31,0.9c-1.79-14.41-1.79-28.82,0-43.22c1.39-1.69,3.04-3.04,4.95-4.05c14.77-0.04,29.47-0.64,44.12-1.8
		c10.93-6.38,13.48-15.23,7.65-26.56c-2.04-2.64-4.59-4.59-7.65-5.85c-6.83-1.41-13.73-1.71-20.71-0.9
		c5.85,5.25,11.41,10.8,16.66,16.66c3.03,7.45,0.63,11.95-7.2,13.51c-2.09-0.37-4.04-1.12-5.85-2.25
		c-10.98-10.68-21.64-21.64-31.96-32.86C412.92,92.07,414.57,87.87,419.66,85.25z"/>
</g>
<g>
	<path class="st19" d="M63.28,93.83c11.19-0.12,22.39,0,33.58,0.36c12.96,2.48,20.7,10.22,23.22,23.22
		c1.34,11.71-2.83,20.88-12.5,27.5c-3.38,1.76-6.95,2.95-10.72,3.57c-8.33,0.36-16.67,0.48-25,0.36c0.12,7.86-0.04,39.63-0.4,47.49
		c-3.73,5.21-7.78,5.45-12.14,0.71c-1.42-11.44-1.38-46.78,0.04-58.2c1.1-1.34,2.41-2.41,3.93-3.21
		c11.72-0.03,23.38-0.51,35.01-1.43c8.67-5.06,10.7-12.09,6.07-21.07c-1.62-2.1-3.64-3.64-6.07-4.64
		c-5.42-1.12-10.9-1.35-16.43-0.71c4.64,4.17,9.05,8.57,13.22,13.22c2.4,5.91,0.5,9.48-5.72,10.72c-1.66-0.29-3.21-0.89-4.64-1.79
		c-8.71-8.47-17.17-17.17-25.36-26.08C57.94,99.25,59.25,95.92,63.28,93.83z"/>
</g>
<g>
	<path class="st13" d="M504.3,85.25c8.1-0.15,11.55,3.75,10.35,11.71c-3.11,5.14-7.46,6.49-13.06,4.05
		c-3.27-2.75-4.32-6.2-3.15-10.35C499.74,88,501.69,86.2,504.3,85.25z"/>
</g>
<g>
	<path class="st14" d="M538.51,90.65c0,2.1,0,4.2,0,6.3c-3.3,5.05-7.8,6.4-13.51,4.05c-5.72-7.61-4.07-12.86,4.95-15.76
		C533.9,85.45,536.75,87.25,538.51,90.65z"/>
</g>
<g>
	<path class="st15" d="M290.65,112.26c27.32,1.06,40.98,15.16,40.97,42.32c-0.75,1.95-2.1,3.3-4.05,4.05
		c-17.71,0.3-35.41,0.6-53.12,0.9c5.75,10.53,14.45,14.43,26.11,11.71c4.22-2.43,8.42-4.83,12.61-7.2c5.95-0.78,9.55,1.77,10.8,7.65
		c-2.78,7.13-7.88,12.08-15.31,14.86c-17.87,6-33.02,1.95-45.47-12.16c-10.2-15.61-10.2-31.21,0-46.82
		C270.4,118.79,279.56,113.68,290.65,112.26z M290.65,129.37c10.13-0.35,17.63,3.85,22.51,12.61c-12.9,1.05-25.8,1.2-38.72,0.45
		C277.9,135.51,283.3,131.16,290.65,129.37z"/>
</g>
<g>
	<path class="st16" d="M338.37,112.26c3.32,0.08,6.17,1.28,8.55,3.6c7.42,15.15,15.08,30.15,22.96,45.02
		c7.9-14.89,15.55-29.9,22.96-45.02c5.51-5.08,10.31-4.48,14.41,1.8c0.6,2.4,0.6,4.8,0,7.2c-10.38,21.51-21.33,42.67-32.86,63.48
		c-4.76,1.85-8.81,0.8-12.16-3.15c-9.9-19.81-19.81-39.62-29.71-59.43C330.05,119.3,332,114.8,338.37,112.26z"/>
</g>
<g>
	<path class="st17" d="M505.2,112.26c4.64-0.01,7.79,2.09,9.45,6.3c0.6,21.61,0.6,43.22,0,64.83c-3.23,6.08-7.88,7.43-13.96,4.05
		c-0.86-1.28-1.61-2.63-2.25-4.05c-0.6-21.61-0.6-43.22,0-64.83C499.53,115.11,501.78,113.01,505.2,112.26z"/>
</g>
<g>
	<path class="st18" d="M538.51,118.56c0,21.61,0,43.22,0,64.83c-4.47,7.24-9.73,7.84-15.76,1.8c-1.03-11.32-1.48-22.73-1.35-34.21
		c-0.13-11.49,0.32-22.89,1.35-34.21C528.78,110.72,534.04,111.32,538.51,118.56z"/>
</g>
<g>
	<g>
		<path class="st20" d="M449.15-81.49c0.35,0,0.69,0.03,1.04,0.03c43.18,0,78.18-35,78.18-78.18s-35-78.18-78.18-78.18
			c-0.35,0-0.69,0.02-1.04,0.03"/>
		<line class="st20" x1="448.62" y1="-237.82" x2="448.62" y2="-202.68"/>
		<line class="st20" x1="448.62" y1="-97.95" x2="448.62" y2="-81.56"/>
	</g>
	<g>
		<path class="st21" d="M444.7-191.11h16.66c15.15,0,21.98,7.82,21.98,23.98v6.65c0,15.01-3.77,26.98-22.67,26.98h-8.11v49.43h-7.86
			V-191.11z M452.55-140.41h7.64c13.41,0,15.17-8.43,15.17-20.04v-6.07c0-9.28-2.22-17.66-14.51-17.66h-8.3V-140.41z"/>
	</g>
</g>
<g>
	<g>
		<path class="st22" d="M-106.53,187.92c0.35,0,0.69,0.03,1.04,0.03c43.18,0,78.18-35,78.18-78.18s-35-78.18-78.18-78.18
			c-0.35,0-0.69,0.02-1.04,0.03"/>
		<line class="st22" x1="-107.06" y1="31.59" x2="-107.06" y2="122.11"/>
		<line class="st22" x1="-107.06" y1="122.11" x2="-107.06" y2="187.85"/>
	</g>
</g>
<path class="st23" d="M-80.06,114.53c-3.9-3.7-7.64-7.25-11.39-10.81c-0.53-0.5-1.06-0.98-1.57-1.49c-2.26-2.28-2.49-5.5-0.56-7.85
	c1.93-2.34,5.2-2.56,7.58-0.37c3.52,3.24,6.96,6.57,10.44,9.87c2.14,2.03,4.3,4.04,6.42,6.1c2.94,2.85,2.99,6.24,0.06,9.04
	c-5.55,5.32-11.13,10.6-16.73,15.86c-2.48,2.33-5.7,2.23-7.71-0.13c-2.04-2.39-1.8-5.71,0.68-8.08
	C-88.67,122.65-84.45,118.69-80.06,114.53z"/>
<path d="M742.41,1455.67c-9.44-7.85-18.52-15.39-27.6-22.94c-1.27-1.06-2.58-2.08-3.82-3.17c-5.48-4.85-6.03-11.68-1.35-16.65
	c4.68-4.97,12.6-5.44,18.35-0.79c8.52,6.88,16.87,13.95,25.29,20.94c5.19,4.31,10.42,8.58,15.55,12.94
	c7.13,6.05,7.25,13.24,0.16,19.19c-13.44,11.28-26.96,22.5-40.52,33.66c-6,4.94-13.8,4.73-18.68-0.28
	c-4.95-5.08-4.35-12.13,1.64-17.16C721.56,1472.9,731.77,1464.49,742.41,1455.67z"/>
<path d="M857.6,1502.59c-0.94,1.21-1.71,2.17-2.46,3.16c-14.76,19.43-30.01,37.42-46.17,52.64c-14.26,13.42-28.97,24.87-44.25,33.7
	c-6.79,3.92-13.7,6.91-20.75,8.59c-13.61,3.24-26.98,1.75-39.99-7.06c-21.66-14.66-39.67-46.81-48-85.88
	c-2.22-10.39-3.6-21.15-4.42-32.2c-0.96-12.94-1.21-25.91-0.37-38.87c3.02-46.73,14.83-83.58,36.25-109.37
	c9.25-11.15,19.47-18.03,30.27-21.93c9.6-3.47,19.31-4.29,29.04-2.73c11.12,1.78,21.78,7.06,32.01,15.31
	c10.76,8.68,20.61,20.16,29.9,33.36c8.67,12.32,16.77,25.84,24.49,40.12c6.52,12.06,12.94,24.3,19.31,36.64
	c7.77,15.06,15.67,29.88,23.96,43.98c0.68,1.16,1.34,2.4,1.99,3.62c6.85,12.93,14.41,24.13,23.1,32.61
	c7.41,7.22,15.24,11.95,23.55,13.78c8.14,1.79,16.21,0.68,24.16-3.01c10.12-4.69,19.4-12.75,27.87-24.01
	c0.34-0.46,0.69-0.91,1.04-1.35c0.06-0.08,0.16-0.05,0.28-0.07c0.46,1.09-0.01,2.04-0.21,2.93c-3.06,13.62-7.47,25.58-13.18,35.85
	c-8.46,15.2-18.4,25.31-30,29.62c-4.83,1.79-9.71,2.35-14.63,1.9c-9.87-0.89-19.11-6.02-27.94-14.01
	c-8.4-7.61-16.04-17.39-23.22-28.42c-3.19-4.9-6.25-10.08-9.36-15.14C859.16,1505.2,858.48,1504.05,857.6,1502.59z M839.58,1469.67
	c-0.54-1.16-0.9-2-1.3-2.77c-6.23-11.92-12.42-23.92-18.71-35.73c-7.72-14.5-15.71-28.46-24.37-41.05
	c-7.47-10.86-15.33-20.54-23.97-27.98c-7.63-6.58-15.57-11.2-23.95-13.15c-4.97-1.15-9.93-1.37-14.93-0.82
	c-7.57,0.82-14.92,3.52-21.94,8.83c-16.6,12.55-27.7,34.54-32.69,66.62c-2,12.89-2.64,26.08-1.95,39.49
	c0.47,9.08,1.3,17.97,3.04,26.53c3.23,15.87,8.45,29.17,15.28,40.33c12.4,20.28,26.89,28.74,43.32,25.86
	c6.32-1.11,12.52-3.56,18.61-6.89c12.02-6.58,23.57-15.4,34.89-25.28c16.72-14.58,32.35-32.58,47.45-52.2
	C838.7,1471.01,839.01,1470.5,839.58,1469.67z"/>
<path d="M874.65,1474.37c-3.02-6.18-6.24-12.14-9.38-18.2c-0.09-0.17-0.18-0.34-0.26-0.5c-8.91,7.95-18,15.55-27.25,22.69
	c1.17,2.11,2.34,4.23,3.5,6.36c0.72,1.33,1.49,2.61,2.26,3.89c8.09,13.44,14.99,28.07,19.98,44.64c4.26,14.12,6.82,28.89,7.43,44.35
	c0.6,15.15-0.74,29.99-3.77,44.47c-3.86,18.42-9.9,35.1-18.01,50.08c-0.33,0.61-0.66,1.21-0.97,1.84c-0.06,0.11-0.04,0.3-0.07,0.52
	c0.69,0.92,1.36,0.09,1.96-0.22c9.28-4.85,17.56-12.28,24.8-22.23c10.72-14.73,18.18-32.51,21.89-53.69
	c1.55-8.82,2.27-17.81,2.34-26.93c0.13-18.29-2.6-35.68-7.27-52.47C887.39,1502.99,881.45,1488.29,874.65,1474.37z"/>
<path d="M963.1,1529.08c0.4-1.84,0.6-2.86,0.84-3.85c2.5-10.24,4.26-20.8,5.19-31.69c0.9-10.45,0.92-20.89-0.74-31.2
	c-2.22-13.79-7.18-24.16-14.95-31.01c-4.51-3.98-9.37-6.3-14.4-7.73c-3.54-1.01-7.12-1.58-10.72-1.45
	c-7.88,0.29-15.39,3.24-22.61,8.28c-5.16,3.61-10.03,8.08-14.74,13.01c-6.09,6.38-11.86,13.46-17.66,20.49
	c-0.7,0.85-1.34,1.91-2.34,2.43c-5.43-7.66-10.63-15.76-15.64-24.36c0.27-0.52,0.42-0.95,0.65-1.22
	c9.28-11.42,18.79-22.3,29.03-31.42c7.75-6.9,15.8-12.62,24.36-16.41c8.31-3.68,16.75-5.18,25.33-3.92
	c10.63,1.56,20.48,6.81,29.13,17.14c8.14,9.72,13.78,22.3,16.36,38.19c1.62,10,1.96,20.17,1.33,30.46
	c-0.61,9.79-2.13,19.17-4.72,28.09c-2.5,8.61-5.85,16.23-10.37,22.43C965.52,1526.56,964.61,1527.79,963.1,1529.08z"/>
<g class="st2">
	<path class="st11" d="M-73.98-208.55c56.41-8.87,80.27,14.84,71.58,71.13c-4.73,20.17-17.49,31.28-38.27,33.31
		c-1.53-0.36-3.03-0.81-4.5-1.35c-11.28-11.28-22.53-22.53-33.76-33.76c-2.22-7.28,0.33-11.48,7.65-12.61
		c2.28,0.24,4.38,0.99,6.3,2.25c9,9,18.01,18.01,27.01,27.01c9.65-0.93,15.8-6.18,18.46-15.76c0.6-12.01,0.6-24.01,0-36.02
		c-2.11-7.51-6.76-12.76-13.96-15.76c-9.83-1.29-19.74-1.74-29.71-1.35c-0.15,4.81,0,9.61,0.45,14.41
		c9.88,9.28,19.48,18.88,28.81,28.81c3.03,7.45,0.63,11.95-7.2,13.51c-2.54-0.44-4.79-1.49-6.75-3.15
		c-10.08-10.98-20.43-21.63-31.06-31.96c-0.6-11.4-0.6-22.81,0-34.21C-77.37-205.76-75.72-207.26-73.98-208.55z"/>
</g>
<g>
	<path class="st12" d="M169.12-208.55c14.11-0.15,28.22,0,42.32,0.45c16.33,3.13,26.09,12.88,29.26,29.26
		c1.69,14.76-3.56,26.31-15.76,34.66c-4.26,2.22-8.76,3.72-13.51,4.5c-10.5,0.45-21.01,0.6-31.51,0.45c0.15,9.91,0,19.81-0.45,29.71
		c-4.7,6.57-9.81,6.87-15.31,0.9c-1.79-14.41-1.79-28.82,0-43.22c1.39-1.69,3.04-3.04,4.95-4.05c14.77-0.04,29.47-0.64,44.12-1.8
		c10.93-6.38,13.48-15.23,7.65-26.56c-2.04-2.64-4.59-4.59-7.65-5.85c-6.83-1.41-13.73-1.71-20.71-0.9
		c5.85,5.25,11.41,10.8,16.66,16.66c3.03,7.45,0.63,11.95-7.2,13.51c-2.09-0.37-4.04-1.12-5.85-2.25
		c-10.98-10.68-21.64-21.64-31.96-32.86C162.39-201.72,164.04-205.92,169.12-208.55z"/>
</g>
<g>
	<path class="st13" d="M253.76-208.55c8.1-0.15,11.55,3.75,10.35,11.71c-3.11,5.14-7.46,6.49-13.06,4.05
		c-3.27-2.75-4.32-6.2-3.15-10.35C249.2-205.79,251.15-207.59,253.76-208.55z"/>
</g>
<g>
	<path class="st14" d="M287.98-203.14c0,2.1,0,4.2,0,6.3c-3.3,5.05-7.8,6.4-13.51,4.05c-5.72-7.61-4.07-12.86,4.95-15.76
		C283.36-208.34,286.21-206.54,287.98-203.14z"/>
</g>
<g>
	<path class="st15" d="M40.12-181.53c27.32,1.06,40.98,15.16,40.97,42.32c-0.75,1.95-2.1,3.3-4.05,4.05
		c-17.71,0.3-35.41,0.6-53.12,0.9c5.75,10.53,14.45,14.43,26.11,11.71c4.22-2.43,8.42-4.83,12.61-7.2c5.95-0.78,9.55,1.77,10.8,7.65
		c-2.78,7.13-7.88,12.08-15.31,14.86c-17.87,6-33.02,1.95-45.47-12.16c-10.2-15.61-10.2-31.21,0-46.82
		C19.87-175.01,29.02-180.11,40.12-181.53z M40.12-164.43c10.13-0.35,17.63,3.85,22.51,12.61c-12.9,1.05-25.8,1.2-38.72,0.45
		C27.36-158.29,32.76-162.64,40.12-164.43z"/>
</g>
<g>
	<path class="st16" d="M87.84-181.53c3.32,0.08,6.17,1.28,8.55,3.6c7.42,15.15,15.08,30.15,22.96,45.02
		c7.9-14.89,15.55-29.9,22.96-45.02c5.51-5.08,10.31-4.48,14.41,1.8c0.6,2.4,0.6,4.8,0,7.2c-10.38,21.51-21.33,42.67-32.86,63.48
		c-4.76,1.85-8.81,0.8-12.16-3.15c-9.9-19.81-19.81-39.62-29.71-59.43C79.52-174.49,81.47-179,87.84-181.53z"/>
</g>
<g>
	<path class="st17" d="M254.66-181.53c4.64-0.01,7.79,2.09,9.45,6.3c0.6,21.61,0.6,43.22,0,64.83c-3.23,6.08-7.88,7.43-13.96,4.05
		c-0.86-1.28-1.61-2.63-2.25-4.05c-0.6-21.61-0.6-43.22,0-64.83C249-178.68,251.25-180.78,254.66-181.53z"/>
</g>
<g>
	<path class="st18" d="M287.98-175.23c0,21.61,0,43.22,0,64.83c-4.47,7.24-9.73,7.84-15.76,1.8c-1.03-11.32-1.48-22.73-1.35-34.21
		c-0.13-11.49,0.32-22.89,1.35-34.21C278.25-183.07,283.5-182.47,287.98-175.23z"/>
</g>
<g class="st24">
	<path class="st25" d="M-194.92-124.64v-96.78c4.8-1.04,11.9-1.88,21.3-1.88c27.13,0,44.47,10.53,52.25,28.4
		c4.71-4.34,9.4-8.69,14.08-13.06c-2.83-4.57-6.23-8.62-10.14-12.21c-12.32-11.49-30.91-17.54-57.02-17.54
		c-14.41,0-27.57,1.25-38.64,2.92v125.7C-206.86-114.07-200.83-119.28-194.92-124.64z"/>
	<path class="st25" d="M-204.63-95.52c4.79,0.36,9.97,0.62,15.59,0.76v-13.83C-194.13-104.11-199.32-99.74-204.63-95.52z"/>
	<path class="st25" d="M-116.97-177.18c0.26,2.64,0.39,5.36,0.37,8.18c0,35.15-18.05,56.35-51.49,59.34v14.49
		c21.72-1.8,39.07-8.58,50.24-19.75c13.16-12.95,20.26-31.75,20.26-54.72c0-8.45-1.01-16-2.92-22.76
		C-105.99-187.3-111.49-182.24-116.97-177.18z"/>
</g>
<g class="st24">
	<path class="st21" d="M-182.63-197.59c4.81-0.79,10.52-1.39,16.78-1.39c11.34,0,19.42,2.87,24.77,8.31
		c5.44,5.44,8.62,13.16,8.62,23.95c0,10.88-3.08,19.79-8.8,25.93c-5.72,6.23-15.15,9.6-27.04,9.6c-5.62,0-10.34-0.3-14.33-0.79
		V-197.59z M-174.73-138.61c2,0.4,4.9,0.5,7.98,0.5c16.88,0,26.04-10.29,26.04-28.3c0.09-15.73-8.07-25.73-24.77-25.73
		c-4.08,0-7.17,0.4-9.25,0.89V-138.61z"/>
</g>
<path class="st26" d="M-178.43-66.06h-0.7c-3.87,0-7.01-3.14-7.01-7.01v-127.48h14.71v127.48
	C-171.42-69.2-174.56-66.06-178.43-66.06z"/>
<g class="st24">
	<path class="st25" d="M48.6,170.94V74.16c4.8-1.04,11.9-1.88,21.3-1.88c27.13,0,44.47,10.53,52.25,28.4
		c4.71-4.34,9.4-8.69,14.08-13.06c-2.83-4.57-6.23-8.62-10.14-12.21c-12.32-11.49-30.91-17.54-57.02-17.54
		c-14.41,0-27.57,1.25-38.64,2.92v125.7C36.66,181.52,42.7,176.3,48.6,170.94z"/>
	<path class="st25" d="M38.89,200.06c4.79,0.36,9.97,0.62,15.59,0.76v-13.83C49.39,191.47,44.21,195.84,38.89,200.06z"/>
	<path class="st25" d="M126.55,118.41c0.26,2.64,0.39,5.36,0.37,8.18c0,35.15-18.05,56.35-51.49,59.34v14.49
		c21.72-1.8,39.07-8.58,50.24-19.75c13.16-12.95,20.26-31.75,20.26-54.72c0-8.45-1.01-16-2.92-22.76
		C137.53,108.29,132.04,113.34,126.55,118.41z"/>
</g>
<g class="st24">
	<path class="st25" d="M470.72,454.74v-96.78c4.8-1.04,11.9-1.88,21.3-1.88c27.13,0,44.47,10.53,52.25,28.4
		c4.71-4.34,9.4-8.69,14.08-13.06c-2.83-4.57-6.23-8.62-10.14-12.21c-12.32-11.49-30.91-17.54-57.02-17.54
		c-14.41,0-27.57,1.25-38.64,2.92v125.7C458.79,465.31,464.82,460.1,470.72,454.74z"/>
	<path class="st25" d="M461.01,483.86c4.79,0.36,9.97,0.62,15.59,0.76v-13.83C471.52,475.27,466.33,479.64,461.01,483.86z"/>
	<path class="st25" d="M548.67,402.2c0.26,2.64,0.39,5.36,0.37,8.18c0,35.15-18.05,56.35-51.49,59.34v14.49
		c21.72-1.8,39.07-8.58,50.24-19.75c13.16-12.95,20.26-31.75,20.26-54.72c0-8.45-1.01-16-2.92-22.76
		C559.66,392.09,554.16,397.14,548.67,402.2z"/>
</g>
<g class="st24">
	<path class="st21" d="M483.02,381.8c4.81-0.79,10.52-1.39,16.78-1.39c11.34,0,19.42,2.87,24.77,8.31
		c5.44,5.44,8.62,13.16,8.62,23.95c0,10.88-3.08,19.79-8.8,25.93c-5.72,6.23-15.15,9.6-27.04,9.6c-5.62,0-10.34-0.3-14.33-0.79
		V381.8z M490.91,440.77c2,0.4,4.9,0.5,7.98,0.5c16.88,0,26.04-10.29,26.04-28.3c0.09-15.73-8.07-25.73-24.77-25.73
		c-4.08,0-7.17,0.4-9.25,0.89V440.77z"/>
</g>
<path class="st26" d="M487.22,513.32h-0.7c-3.87,0-7.01-3.14-7.01-7.01V378.84h14.71v127.48
	C494.23,510.19,491.09,513.32,487.22,513.32z"/>
</svg>
